# xmcd CD database file
#
# Track frame offsets:
#	150
#	27696
#	51118
#	75000
#	103615
#	129968
#	147961
#	165843
#	186859
#	206933
#
# Disc length: 3043 seconds
#
# Revision: 0
# Processed by: cddbd v1.5.2PL0 Copyright (c) Steve Scherf et al.
# Submitted via: CDex 2.12
#
DISCID=7e0be10a
DTITLE=Markus Harm - As It Is
DYEAR=2018
DGENRE=Jazz
TTITLE0=Directiions
TTITLE1=Hangout
TTITLE2=The Lake of Galven
TTITLE3=Some More Than Four
TTITLE4=Brown Coffee Brake
TTITLE5=Here's the Brick, Mr. Lick
TTITLE6=Expactations
TTITLE7=Terminal 2
TTITLE8=Mission Complete, Petrosilius
TTITLE9=I hear a Rhapsody
EXTD=YEAR: 2018
EXTT0=
EXTT1=
EXTT2=
EXTT3=
EXTT4=
EXTT5=
EXTT6=
EXTT7=
EXTT8=
EXTT9=
PLAYORDER=
